<?xml version="1.0" standalone="no"?>
<!DOCTYPE svg PUBLIC "-//W3C//DTD SVG 20010904//EN"
 "http://www.w3.org/TR/2001/REC-SVG-20010904/DTD/svg10.dtd">
<svg version="1.0" xmlns="http://www.w3.org/2000/svg"
 width="150.153457pt" height="148.066456pt" viewBox="0 0 150.153457 148.066456"
 preserveAspectRatio="xMidYMid meet">
<metadata>
Created by potrace 1.12, written by Peter Selinger 2001-2015
</metadata>
<g transform="translate(-31.648655,190.629359) scale(0.100000,-0.100000)"
fill="#000000" stroke="none">
<path d="M935 1896 c-157 -30 -296 -105 -410 -220 -88 -89 -146 -185 -185
-311 -29 -92 -32 -278 -6 -375 71 -267 275 -472 547 -546 88 -24 280 -24 368
0 305 84 510 315 561 633 47 292 -128 611 -417 756 -123 63 -320 90 -458 63z
m204 -141 c16 -14 35 -41 41 -60 24 -74 -34 -155 -112 -155 -98 0 -157 94
-113 180 32 62 129 81 184 35z m-459 -117 c143 -45 239 -112 290 -202 17 -28
30 -54 30 -58 0 -3 -12 -11 -27 -17 -16 -5 -41 -18 -56 -28 -26 -16 -29 -17
-37 -2 -28 49 -110 146 -172 204 -39 36 -73 64 -74 62 -2 -2 12 -37 32 -78 20
-41 49 -108 64 -149 30 -80 65 -228 57 -236 -2 -3 -32 23 -66 56 -97 97 -139
207 -155 403 l-7 78 28 -7 c15 -3 57 -15 93 -26z m884 -45 c-9 -95 -33 -204
-58 -258 -57 -125 -161 -198 -372 -264 -132 -41 -178 -78 -180 -142 -1 -46
-11 -79 -24 -79 -12 0 -30 58 -30 97 0 79 50 127 200 193 137 60 177 85 223
142 42 52 160 238 154 244 -7 7 -104 -99 -165 -181 -66 -91 -108 -126 -119
-100 -10 28 4 121 26 163 46 91 119 148 263 207 45 19 84 35 85 35 1 0 -1 -26
-3 -57z m-476 -127 c7 -32 -7 -62 -33 -74 l-25 -12 0 59 0 59 28 -7 c15 -4 29
-15 30 -25z m72 -81 c0 -47 -36 -83 -108 -108 -92 -32 -145 -96 -135 -162 2
-17 -2 -38 -10 -49 -14 -19 -15 -19 -31 12 -24 46 -21 122 7 163 28 42 89 84
145 100 67 19 92 43 92 91 l0 41 20 -26 c12 -15 20 -40 20 -62z m-86 -212
c-30 -22 -44 -16 -44 21 0 29 5 36 28 44 25 8 27 7 30 -22 2 -20 -2 -34 -14
-43z m574 0 c-3 -45 -15 -102 -27 -135 -26 -68 -97 -151 -155 -180 -39 -20
-146 -51 -153 -44 -7 7 77 104 146 169 77 72 80 83 10 38 -61 -40 -111 -94
-159 -176 l-42 -70 6 44 c14 94 107 218 238 318 26 20 46 39 43 41 -2 2 -30
-10 -62 -27 -65 -35 -129 -92 -175 -154 -30 -42 -32 -35 -7 31 16 41 103 124
164 154 56 29 149 66 169 67 5 1 6 -34 4 -76z m-1063 10 c164 -68 265 -179
265 -292 0 -74 -13 -80 -50 -25 -67 98 -134 176 -193 224 -34 27 -63 48 -65
45 -2 -2 25 -39 60 -82 75 -92 105 -133 142 -192 l28 -44 -33 7 c-143 28 -259
185 -259 348 0 56 -4 56 105 11z m653 -185 c-6 -62 -30 -88 -125 -133 -80 -38
-123 -76 -123 -109 0 -12 -7 -30 -16 -41 -13 -17 -16 -18 -25 -5 -5 8 -8 35
-6 58 6 58 49 102 149 153 77 39 98 60 98 98 0 21 28 43 43 34 5 -3 7 -28 5
-55z m-148 -13 c0 -17 -9 -29 -30 -40 -30 -15 -30 -15 -30 13 0 20 7 32 23 40
33 16 37 14 37 -13z m110 -154 c0 -42 -39 -92 -95 -123 -90 -49 -104 -85 -55
-141 39 -45 39 -62 0 -42 -45 23 -72 72 -66 118 5 47 32 77 103 117 32 18 59
42 66 58 21 49 47 56 47 13z m-405 -70 c48 -22 101 -74 110 -108 3 -14 4 -27
3 -29 -2 -2 -32 17 -67 41 -34 24 -77 49 -94 55 -40 13 -30 4 63 -60 l75 -52
-52 4 c-37 4 -63 13 -88 33 -40 30 -95 101 -95 122 0 20 97 16 145 -6z m685
12 c0 -12 -40 -76 -64 -101 -34 -38 -93 -63 -138 -60 l-40 3 85 55 c47 30 84
56 82 58 -7 7 -90 -36 -140 -72 -55 -40 -69 -32 -41 23 17 32 56 63 108 86 34
15 148 21 148 8z m-400 -160 c-1 -36 -2 -37 -15 -19 -16 21 -19 39 -8 49 15
16 23 5 23 -30z"/>
</g>
</svg>
